<svg width="27" height="27" viewBox="0 0 27 27" fill="none" xmlns="http://www.w3.org/2000/svg">
<rect width="27" height="27" rx="10" fill="white"/>
<path d="M15.9983 13.5071C15.9986 13.657 15.9405 13.8023 15.8341 13.9178L12.2645 17.7682C12.1433 17.8992 11.9692 17.9816 11.7804 17.9973C11.5917 18.0129 11.4037 17.9605 11.2579 17.8516C11.1121 17.7427 11.0204 17.5861 11.003 17.4165C10.9856 17.2468 11.0439 17.0778 11.1651 16.9468L14.3634 13.5071L11.2793 10.0674C11.22 10.0017 11.1757 9.92619 11.149 9.84512C11.1223 9.76404 11.1137 9.67902 11.1236 9.59493C11.1336 9.51085 11.1619 9.42936 11.207 9.35515C11.2521 9.28094 11.3131 9.21548 11.3864 9.16252C11.4598 9.10375 11.5459 9.05924 11.6394 9.03178C11.7328 9.00432 11.8315 8.9945 11.9294 9.00293C12.0272 9.01136 12.1221 9.03787 12.208 9.08079C12.2939 9.12371 12.3691 9.18212 12.4287 9.25236L15.8769 13.1028C15.9666 13.2215 16.0093 13.3639 15.9983 13.5071Z" fill="#2C2C2C"/>
</svg>
