<svg width="48" height="36" viewBox="0 0 48 36" fill="none" xmlns="http://www.w3.org/2000/svg">
<path d="M24.5 25.5C24.5 26.1188 24.2542 26.7123 23.8166 27.1499C23.379 27.5875 22.7855 27.8333 22.1667 27.8333H8.16667L3.5 32.5V13.8333C3.5 13.2145 3.74583 12.621 4.18342 12.1834C4.621 11.7458 5.21449 11.5 5.83333 11.5H22.1667C22.7855 11.5 23.379 11.7458 23.8166 12.1834C24.2542 12.621 24.5 13.2145 24.5 13.8333V25.5Z" stroke="#303030" stroke-width="2" stroke-linecap="round" stroke-linejoin="round"/>
<rect x="17" y="1" width="30" height="18" rx="9" fill="#FF9F9F"/>
<rect x="17" y="1" width="30" height="18" rx="9" stroke="#FAFBFD" stroke-width="2"/>
<path d="M25.2209 6.62784C25.5949 6.62784 25.9548 6.69058 26.3004 6.81605C26.6484 6.94152 26.9586 7.14157 27.2308 7.41619C27.5054 7.69081 27.7221 8.0554 27.8807 8.50994C28.0417 8.96212 28.1233 9.51728 28.1257 10.1754C28.1257 10.7933 28.0559 11.3449 27.9162 11.8303C27.7789 12.3132 27.5812 12.724 27.3232 13.0625C27.0651 13.401 26.7538 13.6591 26.3892 13.8366C26.0246 14.0118 25.6174 14.0994 25.1676 14.0994C24.6823 14.0994 24.2538 14.0059 23.8821 13.8189C23.5104 13.6295 23.2109 13.3726 22.9837 13.0483C22.7588 12.7216 22.6226 12.3546 22.5753 11.9474H24.0916C24.1508 12.2126 24.2751 12.4186 24.4645 12.5653C24.6539 12.7098 24.8883 12.782 25.1676 12.782C25.6411 12.782 26.0009 12.576 26.2472 12.1641C26.4934 11.7498 26.6177 11.1828 26.62 10.4631H26.5703C26.4614 10.6761 26.3146 10.8596 26.13 11.0135C25.9453 11.165 25.7334 11.2822 25.4943 11.3651C25.2576 11.4479 25.0054 11.4893 24.7379 11.4893C24.3094 11.4893 23.9271 11.3887 23.5909 11.1875C23.2547 10.9863 22.9896 10.7093 22.7955 10.3565C22.6013 10.0038 22.5043 9.60133 22.5043 9.14915C22.5019 8.66146 22.6143 8.22704 22.8416 7.84588C23.0689 7.46473 23.3861 7.16643 23.7933 6.95099C24.2029 6.73319 24.6787 6.62547 25.2209 6.62784ZM25.2315 7.83523C24.9924 7.83523 24.7794 7.89205 24.5923 8.00568C24.4077 8.11932 24.2609 8.27202 24.152 8.46378C24.0455 8.65554 23.9934 8.86979 23.9957 9.10653C23.9957 9.34564 24.0478 9.56108 24.152 9.75284C24.2585 9.94223 24.4029 10.0937 24.5852 10.2074C24.7699 10.3187 24.9806 10.3743 25.2173 10.3743C25.3949 10.3743 25.5594 10.3411 25.7109 10.2749C25.8625 10.2086 25.9938 10.1174 26.1051 10.0014C26.2188 9.88305 26.3075 9.74692 26.3714 9.59304C26.4354 9.43916 26.4673 9.2758 26.4673 9.10298C26.465 8.87334 26.4105 8.66264 26.304 8.47088C26.1974 8.27912 26.0507 8.12524 25.8636 8.00923C25.6766 7.89323 25.4659 7.83523 25.2315 7.83523ZM31.8224 6.62784C32.1965 6.62784 32.5563 6.69058 32.902 6.81605C33.25 6.94152 33.5601 7.14157 33.8324 7.41619C34.107 7.69081 34.3236 8.0554 34.4822 8.50994C34.6432 8.96212 34.7249 9.51728 34.7273 10.1754C34.7273 10.7933 34.6574 11.3449 34.5178 11.8303C34.3804 12.3132 34.1828 12.724 33.9247 13.0625C33.6667 13.401 33.3554 13.6591 32.9908 13.8366C32.6262 14.0118 32.219 14.0994 31.7692 14.0994C31.2839 14.0994 30.8554 14.0059 30.4837 13.8189C30.112 13.6295 29.8125 13.3726 29.5852 13.0483C29.3603 12.7216 29.2242 12.3546 29.1768 11.9474H30.6932C30.7524 12.2126 30.8767 12.4186 31.0661 12.5653C31.2554 12.7098 31.4898 12.782 31.7692 12.782C32.2427 12.782 32.6025 12.576 32.8487 12.1641C33.0949 11.7498 33.2192 11.1828 33.2216 10.4631H33.1719C33.063 10.6761 32.9162 10.8596 32.7315 11.0135C32.5469 11.165 32.335 11.2822 32.0959 11.3651C31.8591 11.4479 31.607 11.4893 31.3395 11.4893C30.911 11.4893 30.5286 11.3887 30.1925 11.1875C29.8563 10.9863 29.5911 10.7093 29.397 10.3565C29.2029 10.0038 29.1058 9.60133 29.1058 9.14915C29.1035 8.66146 29.2159 8.22704 29.4432 7.84588C29.6705 7.46473 29.9877 7.16643 30.3949 6.95099C30.8045 6.73319 31.2803 6.62547 31.8224 6.62784ZM31.8331 7.83523C31.594 7.83523 31.3809 7.89205 31.1939 8.00568C31.0092 8.11932 30.8625 8.27202 30.7536 8.46378C30.647 8.65554 30.5949 8.86979 30.5973 9.10653C30.5973 9.34564 30.6494 9.56108 30.7536 9.75284C30.8601 9.94223 31.0045 10.0937 31.1868 10.2074C31.3714 10.3187 31.5821 10.3743 31.8189 10.3743C31.9964 10.3743 32.161 10.3411 32.3125 10.2749C32.464 10.2086 32.5954 10.1174 32.7067 10.0014C32.8203 9.88305 32.9091 9.74692 32.973 9.59304C33.0369 9.43916 33.0689 9.2758 33.0689 9.10298C33.0665 8.87334 33.0121 8.66264 32.9055 8.47088C32.799 8.27912 32.6522 8.12524 32.4652 8.00923C32.2782 7.89323 32.0675 7.83523 31.8331 7.83523ZM37.9659 12.892V7.86364H39.2372V12.892H37.9659ZM36.0874 11.0135V9.74219H41.1158V11.0135H36.0874Z" fill="white"/>
</svg>
