<svg width="58" height="58" viewBox="0 0 58 58" fill="none" xmlns="http://www.w3.org/2000/svg">
<g id="iconDesigners">
<path id="Vector" d="M12.083 13.2916C12.083 11.0483 12.9742 8.89689 14.5604 7.31064C16.1466 5.7244 18.2981 4.83325 20.5413 4.83325H28.9997V21.7499H20.5413C18.2981 21.7499 16.1466 20.8588 14.5604 19.2725C12.9742 17.6863 12.083 15.5349 12.083 13.2916Z" stroke="#7B83CE" stroke-width="2" stroke-linecap="round" stroke-linejoin="round"/>
<path id="Vector_2" d="M29 4.83325H37.4583C38.5691 4.83325 39.669 5.05203 40.6952 5.4771C41.7214 5.90218 42.6539 6.52521 43.4393 7.31064C44.2247 8.09607 44.8477 9.02851 45.2728 10.0547C45.6979 11.0809 45.9167 12.1808 45.9167 13.2916C45.9167 14.4023 45.6979 15.5022 45.2728 16.5284C44.8477 17.5547 44.2247 18.4871 43.4393 19.2725C42.6539 20.058 41.7214 20.681 40.6952 21.1061C39.669 21.5311 38.5691 21.7499 37.4583 21.7499H29V4.83325Z" stroke="#7B83CE" stroke-width="2" stroke-linecap="round" stroke-linejoin="round"/>
<path id="Vector_3" d="M29 30.2083C29 29.0976 29.2188 27.9977 29.6439 26.9715C30.0689 25.9453 30.692 25.0128 31.4774 24.2274C32.2628 23.442 33.1953 22.8189 34.2215 22.3939C35.2477 21.9688 36.3476 21.75 37.4583 21.75C38.5691 21.75 39.669 21.9688 40.6952 22.3939C41.7214 22.8189 42.6539 23.442 43.4393 24.2274C44.2247 25.0128 44.8477 25.9453 45.2728 26.9715C45.6979 27.9977 45.9167 29.0976 45.9167 30.2083C45.9167 31.3191 45.6979 32.419 45.2728 33.4452C44.8477 34.4714 44.2247 35.4038 43.4393 36.1893C42.6539 36.9747 41.7214 37.5977 40.6952 38.0228C39.669 38.4479 38.5691 38.6667 37.4583 38.6667C36.3476 38.6667 35.2477 38.4479 34.2215 38.0228C33.1953 37.5977 32.2628 36.9747 31.4774 36.1893C30.692 35.4038 30.0689 34.4714 29.6439 33.4452C29.2188 32.419 29 31.3191 29 30.2083V30.2083Z" stroke="#7B83CE" stroke-width="2" stroke-linecap="round" stroke-linejoin="round"/>
<path id="Vector_4" d="M12.083 47.1248C12.083 44.8815 12.9742 42.7301 14.5604 41.1439C16.1466 39.5576 18.2981 38.6665 20.5413 38.6665H28.9997V47.1248C28.9997 49.3681 28.1085 51.5195 26.5223 53.1058C24.936 54.692 22.7846 55.5832 20.5413 55.5832C18.2981 55.5832 16.1466 54.692 14.5604 53.1058C12.9742 51.5195 12.083 49.3681 12.083 47.1248Z" stroke="#7B83CE" stroke-width="2" stroke-linecap="round" stroke-linejoin="round"/>
<path id="Vector_5" d="M12.083 30.2083C12.083 27.965 12.9742 25.8136 14.5604 24.2274C16.1466 22.6411 18.2981 21.75 20.5413 21.75H28.9997V38.6667H20.5413C18.2981 38.6667 16.1466 37.7755 14.5604 36.1893C12.9742 34.603 12.083 32.4516 12.083 30.2083Z" stroke="#7B83CE" stroke-width="2" stroke-linecap="round" stroke-linejoin="round"/>
</g>
</svg>
