<svg width="58" height="58" viewBox="0 0 58 58" fill="none" xmlns="http://www.w3.org/2000/svg">
<g id="iconDeveloper">
<path id="Vector" d="M43.5003 9.66675H14.5003C11.8309 9.66675 9.66699 11.8307 9.66699 14.5001V43.5001C9.66699 46.1695 11.8309 48.3334 14.5003 48.3334H43.5003C46.1697 48.3334 48.3337 46.1695 48.3337 43.5001V14.5001C48.3337 11.8307 46.1697 9.66675 43.5003 9.66675Z" stroke="#7B83CE" stroke-width="2" stroke-linecap="round" stroke-linejoin="round"/>
<path id="Vector_2" d="M36.25 21.75H21.75V36.25H36.25V21.75Z" stroke="#7B83CE" stroke-width="2" stroke-linecap="round" stroke-linejoin="round"/>
<path id="Vector_3" d="M21.75 2.41675V9.66675" stroke="#7B83CE" stroke-width="2" stroke-linecap="round" stroke-linejoin="round"/>
<path id="Vector_4" d="M36.25 2.41675V9.66675" stroke="#7B83CE" stroke-width="2" stroke-linecap="round" stroke-linejoin="round"/>
<path id="Vector_5" d="M21.75 48.3333V55.5833" stroke="#7B83CE" stroke-width="2" stroke-linecap="round" stroke-linejoin="round"/>
<path id="Vector_6" d="M36.25 48.3333V55.5833" stroke="#7B83CE" stroke-width="2" stroke-linecap="round" stroke-linejoin="round"/>
<path id="Vector_7" d="M48.333 21.75H55.583" stroke="#7B83CE" stroke-width="2" stroke-linecap="round" stroke-linejoin="round"/>
<path id="Vector_8" d="M48.333 33.8333H55.583" stroke="#7B83CE" stroke-width="2" stroke-linecap="round" stroke-linejoin="round"/>
<path id="Vector_9" d="M2.41699 21.75H9.66699" stroke="#7B83CE" stroke-width="2" stroke-linecap="round" stroke-linejoin="round"/>
<path id="Vector_10" d="M2.41699 33.8333H9.66699" stroke="#7B83CE" stroke-width="2" stroke-linecap="round" stroke-linejoin="round"/>
</g>
</svg>
